<?xml version="1.0" encoding="utf-8"?>
<!-- Generator: Adobe Illustrator 23.1.1, SVG Export Plug-In . SVG Version: 6.00 Build 0)  -->
<svg version="1.1" xmlns="http://www.w3.org/2000/svg" xmlns:xlink="http://www.w3.org/1999/xlink" x="0px" y="0px"
	 viewBox="0 0 595.3 841.9" style="enable-background:new 0 0 595.3 841.9;" xml:space="preserve">
<style type="text/css">
	.st0{fill:none;}
	.st1{clip-path:url(#SVGID_2_);fill:none;stroke:#808080;stroke-width:0.1;stroke-miterlimit:10;}
	.st2{clip-path:url(#SVGID_4_);fill:none;stroke:#EBEBEB;stroke-width:0.1;stroke-miterlimit:10;}
	.st3{display:none;}
	.st4{display:inline;fill-rule:evenodd;clip-rule:evenodd;fill:#D4DFF2;}
	.st5{display:inline;fill:none;stroke:#2952A3;stroke-width:0;stroke-linecap:round;stroke-linejoin:round;stroke-miterlimit:10;}
	.st6{display:inline;fill-rule:evenodd;clip-rule:evenodd;fill:url(#SVGID_5_);}
	.st7{display:inline;fill:none;stroke:#00D000;stroke-width:0;stroke-linecap:round;stroke-linejoin:round;stroke-miterlimit:10;}
	.st8{display:inline;fill-rule:evenodd;clip-rule:evenodd;fill:url(#SVGID_6_);}
	
		.st9{display:inline;fill:none;stroke:#00D000;stroke-width:0;stroke-linecap:round;stroke-linejoin:round;stroke-miterlimit:10;stroke-dasharray:3,3;}
	.st10{display:inline;fill-rule:evenodd;clip-rule:evenodd;fill:url(#SVGID_7_);}
	.st11{display:inline;fill-rule:evenodd;clip-rule:evenodd;fill:url(#SVGID_8_);}
	.st12{display:inline;fill-rule:evenodd;clip-rule:evenodd;fill:url(#SVGID_9_);}
	.st13{display:inline;fill-rule:evenodd;clip-rule:evenodd;fill:url(#SVGID_10_);}
	.st14{display:inline;fill-rule:evenodd;clip-rule:evenodd;fill:url(#SVGID_11_);}
	.st15{display:inline;fill-rule:evenodd;clip-rule:evenodd;fill:url(#SVGID_12_);}
	.st16{display:inline;fill-rule:evenodd;clip-rule:evenodd;fill:url(#SVGID_13_);}
	.st17{display:inline;fill-rule:evenodd;clip-rule:evenodd;fill:url(#SVGID_14_);}
	.st18{display:inline;fill-rule:evenodd;clip-rule:evenodd;fill:url(#SVGID_15_);}
	.st19{display:inline;fill-rule:evenodd;clip-rule:evenodd;fill:url(#SVGID_16_);}
	.st20{display:inline;fill-rule:evenodd;clip-rule:evenodd;fill:url(#SVGID_17_);}
	.st21{fill:none;stroke:#000000;stroke-width:0.2835;stroke-linecap:round;stroke-linejoin:round;stroke-miterlimit:10;}
	.st22{display:inline;}
	.st23{fill:none;stroke:#000000;stroke-width:0.7087;stroke-linecap:round;stroke-linejoin:round;stroke-miterlimit:10;}
</style>
<pattern  y="841.9" width="32" height="32" patternUnits="userSpaceOnUse" id="Unnamed_Pattern_23" viewBox="32.1 -32.1 32 32" style="overflow:visible;">
	<g>
		<rect x="32.1" y="-32.1" class="st0" width="32" height="32"/>
		<g>
			<defs>
				<rect id="SVGID_1_" x="32.1" y="-32.1" width="32" height="32"/>
			</defs>
			<clipPath id="SVGID_2_">
				<use xlink:href="#SVGID_1_"  style="overflow:visible;"/>
			</clipPath>
			<path class="st1" d="M64,0l32.2-32.2 M60,0l32.2-32.2 M56,0l32.2-32.2 M52,0l32.2-32.2 M48,0l32.2-32.2 M44,0l32.2-32.2 M40,0
				l32.2-32.2 M36,0l32.2-32.2 M32,0l32.2-32.2 M28,0l32.2-32.2 M24,0l32.2-32.2 M20,0l32.2-32.2 M16,0l32.2-32.2 M12,0l32.2-32.2
				 M8,0l32.2-32.2 M4,0l32.2-32.2 M0,0l32.2-32.2"/>
			<path class="st1" d="M128-32.2L160.2,0 M124-32.2L156.2,0 M120-32.2L152.2,0 M116-32.2L148.2,0 M112-32.2L144.2,0 M108-32.2
				L140.2,0 M104-32.2L136.2,0 M100-32.2L132.2,0 M96-32.2L128.2,0 M92-32.2L124.2,0 M88-32.2L120.2,0 M84-32.2L116.2,0 M80-32.2
				L112.2,0 M76-32.2L108.2,0 M72-32.2L104.2,0 M68-32.2L100.2,0 M64-32.2L96.2,0 M60-32.2L92.2,0 M56-32.2L88.2,0 M52-32.2L84.2,0
				 M48-32.2L80.2,0 M44-32.2L76.2,0 M40-32.2L72.2,0 M36-32.2L68.2,0 M32-32.2L64.2,0 M28-32.2L60.2,0 M24-32.2L56.2,0 M20-32.2
				L52.2,0 M16-32.2L48.2,0 M12-32.2L44.2,0 M8-32.2L40.2,0 M4-32.2L36.2,0 M0-32.2L32.2,0"/>
		</g>
	</g>
</pattern>
<pattern  y="841.9" width="32" height="32" patternUnits="userSpaceOnUse" id="Unnamed_Pattern_24" viewBox="32.1 -32.1 32 32" style="overflow:visible;">
	<g>
		<rect x="32.1" y="-32.1" class="st0" width="32" height="32"/>
		<g>
			<defs>
				<rect id="SVGID_3_" x="32.1" y="-32.1" width="32" height="32"/>
			</defs>
			<clipPath id="SVGID_4_">
				<use xlink:href="#SVGID_3_"  style="overflow:visible;"/>
			</clipPath>
			<path class="st2" d="M64,0l32.2-32.2 M60,0l32.2-32.2 M56,0l32.2-32.2 M52,0l32.2-32.2 M48,0l32.2-32.2 M44,0l32.2-32.2 M40,0
				l32.2-32.2 M36,0l32.2-32.2 M32,0l32.2-32.2 M28,0l32.2-32.2 M24,0l32.2-32.2 M20,0l32.2-32.2 M16,0l32.2-32.2 M12,0l32.2-32.2
				 M8,0l32.2-32.2 M4,0l32.2-32.2 M0,0l32.2-32.2"/>
			<path class="st2" d="M128-32.2L160.2,0 M124-32.2L156.2,0 M120-32.2L152.2,0 M116-32.2L148.2,0 M112-32.2L144.2,0 M108-32.2
				L140.2,0 M104-32.2L136.2,0 M100-32.2L132.2,0 M96-32.2L128.2,0 M92-32.2L124.2,0 M88-32.2L120.2,0 M84-32.2L116.2,0 M80-32.2
				L112.2,0 M76-32.2L108.2,0 M72-32.2L104.2,0 M68-32.2L100.2,0 M64-32.2L96.2,0 M60-32.2L92.2,0 M56-32.2L88.2,0 M52-32.2L84.2,0
				 M48-32.2L80.2,0 M44-32.2L76.2,0 M40-32.2L72.2,0 M36-32.2L68.2,0 M32-32.2L64.2,0 M28-32.2L60.2,0 M24-32.2L56.2,0 M20-32.2
				L52.2,0 M16-32.2L48.2,0 M12-32.2L44.2,0 M8-32.2L40.2,0 M4-32.2L36.2,0 M0-32.2L32.2,0"/>
		</g>
	</g>
</pattern>
<g id="Layer_2" class="st3">
	<path class="st4" d="M99.5,520.6L99.5,520.6c0,6.3,5.1,11.3,11.3,11.3l375.3,0c6.3,0,11.3-5.1,11.3-11.3l0-189.2
		c0-6.3-5.1-11.3-11.3-11.3l-375.3,0c-6.3,0-11.3,5.1-11.3,11.3L99.5,520.6z"/>
	<path class="st5" d="M99.5,520.6L99.5,520.6c0,6.3,5.1,11.3,11.3,11.3l375.3,0c6.3,0,11.3-5.1,11.3-11.3l0-189.2
		c0-6.3-5.1-11.3-11.3-11.3l-375.3,0c-6.3,0-11.3,5.1-11.3,11.3L99.5,520.6z"/>
	<path class="st4" d="M87.7,564.3L87.7,564.3c0,2.3,1.9,4.2,4.3,4.2l416.7,0c2.4,0,4.3-1.9,4.3-4.3l0-275c0-2.4-1.9-4.3-4.3-4.3
		l-416.7,0c-2.3,0-4.3,1.9-4.3,4.3L87.7,564.3z"/>
	<pattern  id="SVGID_5_" xlink:href="#Unnamed_Pattern_24" patternTransform="matrix(1 0 0 -1 -26 -527.2707)">
	</pattern>
	<path class="st6" d="M192.6,559.7c0-5.5-4.4-9.9-9.9-9.9c-5.5,0-9.9,4.4-9.9,9.9s4.4,9.9,9.9,9.9
		C188.2,569.6,192.6,565.2,192.6,559.7L192.6,559.7z"/>
	<path class="st7" d="M192.6,559.7c0-5.5-4.4-9.9-9.9-9.9c-5.5,0-9.9,4.4-9.9,9.9s4.4,9.9,9.9,9.9
		C188.2,569.6,192.6,565.2,192.6,559.7L192.6,559.7z"/>
	<pattern  id="SVGID_6_" xlink:href="#Unnamed_Pattern_23" patternTransform="matrix(1 0 0 -1 -26 -527.2707)">
	</pattern>
	<path class="st8" d="M189.8,559.7c0-3.9-3.2-7.1-7.1-7.1s-7.1,3.2-7.1,7.1s3.2,7.1,7.1,7.1S189.8,563.6,189.8,559.7L189.8,559.7z"
		/>
	<path class="st9" d="M189.8,559.7c0-3.9-3.2-7.1-7.1-7.1s-7.1,3.2-7.1,7.1s3.2,7.1,7.1,7.1S189.8,563.6,189.8,559.7L189.8,559.7z"
		/>
	<pattern  id="SVGID_7_" xlink:href="#Unnamed_Pattern_24" patternTransform="matrix(1 0 0 -1 -26 -527.2707)">
	</pattern>
	<path class="st10" d="M186.2,559.7c0-2-1.6-3.5-3.5-3.5s-3.5,1.6-3.5,3.5c0,2,1.6,3.5,3.5,3.5S186.2,561.6,186.2,559.7L186.2,559.7
		z"/>
	<path class="st9" d="M186.2,559.7c0-2-1.6-3.5-3.5-3.5s-3.5,1.6-3.5,3.5c0,2,1.6,3.5,3.5,3.5S186.2,561.6,186.2,559.7L186.2,559.7z
		"/>
	<pattern  id="SVGID_8_" xlink:href="#Unnamed_Pattern_24" patternTransform="matrix(1 0 0 -1 -26 -527.2707)">
	</pattern>
	<path class="st11" d="M448.8,559.7c0-5.5-4.4-9.9-9.9-9.9c-5.5,0-9.9,4.4-9.9,9.9s4.4,9.9,9.9,9.9
		C444.4,569.6,448.9,565.2,448.8,559.7L448.8,559.7z"/>
	<path class="st9" d="M448.8,559.7c0-5.5-4.4-9.9-9.9-9.9c-5.5,0-9.9,4.4-9.9,9.9s4.4,9.9,9.9,9.9
		C444.4,569.6,448.9,565.2,448.8,559.7L448.8,559.7z"/>
	<pattern  id="SVGID_9_" xlink:href="#Unnamed_Pattern_23" patternTransform="matrix(1 0 0 -1 -26 -527.2707)">
	</pattern>
	<path class="st12" d="M446,559.7c0-3.9-3.2-7.1-7.1-7.1c-3.9,0-7.1,3.2-7.1,7.1s3.2,7.1,7.1,7.1C442.8,566.8,446,563.6,446,559.7
		L446,559.7z"/>
	<path class="st9" d="M446,559.7c0-3.9-3.2-7.1-7.1-7.1c-3.9,0-7.1,3.2-7.1,7.1s3.2,7.1,7.1,7.1C442.8,566.8,446,563.6,446,559.7
		L446,559.7z"/>
	<pattern  id="SVGID_10_" xlink:href="#Unnamed_Pattern_24" patternTransform="matrix(1 0 0 -1 -26 -527.2707)">
	</pattern>
	<path class="st13" d="M442.5,559.7c0-2-1.6-3.5-3.5-3.5c-2,0-3.5,1.6-3.5,3.5c0,2,1.6,3.5,3.5,3.5
		C440.9,563.2,442.5,561.6,442.5,559.7L442.5,559.7z"/>
	<path class="st9" d="M442.5,559.7c0-2-1.6-3.5-3.5-3.5c-2,0-3.5,1.6-3.5,3.5c0,2,1.6,3.5,3.5,3.5
		C440.9,563.2,442.5,561.6,442.5,559.7L442.5,559.7z"/>
	<pattern  id="SVGID_11_" xlink:href="#Unnamed_Pattern_24" patternTransform="matrix(1 0 0 -1 -26 -527.2707)">
	</pattern>
	<path class="st14" d="M448.8,290.4c0-5.5-4.4-9.9-9.9-9.9s-9.9,4.4-9.9,9.9c0,5.5,4.4,9.9,9.9,9.9S448.8,295.9,448.8,290.4
		L448.8,290.4z"/>
	<path class="st9" d="M448.8,290.4c0-5.5-4.4-9.9-9.9-9.9s-9.9,4.4-9.9,9.9c0,5.5,4.4,9.9,9.9,9.9S448.8,295.9,448.8,290.4
		L448.8,290.4z"/>
	<pattern  id="SVGID_12_" xlink:href="#Unnamed_Pattern_23" patternTransform="matrix(1 0 0 -1 -26 -527.2707)">
	</pattern>
	<path class="st15" d="M446,290.4c0-3.9-3.2-7.1-7.1-7.1s-7.1,3.2-7.1,7.1c0,3.9,3.2,7.1,7.1,7.1S446,294.3,446,290.4L446,290.4z"/>
	<path class="st9" d="M446,290.4c0-3.9-3.2-7.1-7.1-7.1s-7.1,3.2-7.1,7.1c0,3.9,3.2,7.1,7.1,7.1S446,294.3,446,290.4L446,290.4z"/>
	<pattern  id="SVGID_13_" xlink:href="#Unnamed_Pattern_24" patternTransform="matrix(1 0 0 -1 -26 -527.2707)">
	</pattern>
	<path class="st16" d="M442.5,290.4c0-2-1.6-3.5-3.5-3.5s-3.5,1.6-3.5,3.5c0,2,1.6,3.5,3.5,3.5S442.5,292.4,442.5,290.4L442.5,290.4
		z"/>
	<path class="st9" d="M442.5,290.4c0-2-1.6-3.5-3.5-3.5s-3.5,1.6-3.5,3.5c0,2,1.6,3.5,3.5,3.5S442.5,292.4,442.5,290.4L442.5,290.4z
		"/>
	<pattern  id="SVGID_14_" xlink:href="#Unnamed_Pattern_24" patternTransform="matrix(1 0 0 -1 -26 -527.2707)">
	</pattern>
	<path class="st17" d="M192.6,290.4c0-5.5-4.4-9.9-9.9-9.9c-5.5,0-9.9,4.4-9.9,9.9c0,5.5,4.4,9.9,9.9,9.9
		C188.2,300.3,192.6,295.9,192.6,290.4L192.6,290.4z"/>
	<path class="st9" d="M192.6,290.4c0-5.5-4.4-9.9-9.9-9.9c-5.5,0-9.9,4.4-9.9,9.9c0,5.5,4.4,9.9,9.9,9.9
		C188.2,300.3,192.6,295.9,192.6,290.4L192.6,290.4z"/>
	<pattern  id="SVGID_15_" xlink:href="#Unnamed_Pattern_23" patternTransform="matrix(1 0 0 -1 -26 -527.2707)">
	</pattern>
	<path class="st18" d="M189.8,290.4c0-3.9-3.2-7.1-7.1-7.1s-7.1,3.2-7.1,7.1s3.2,7.1,7.1,7.1S189.8,294.3,189.8,290.4L189.8,290.4z"
		/>
	<path class="st9" d="M189.8,290.4c0-3.9-3.2-7.1-7.1-7.1s-7.1,3.2-7.1,7.1s3.2,7.1,7.1,7.1S189.8,294.3,189.8,290.4L189.8,290.4z"
		/>
	<pattern  id="SVGID_16_" xlink:href="#Unnamed_Pattern_24" patternTransform="matrix(1 0 0 -1 -26 -527.2707)">
	</pattern>
	<path class="st19" d="M186.2,290.4c0-2-1.6-3.5-3.5-3.5s-3.5,1.6-3.5,3.5s1.6,3.5,3.5,3.5S186.2,292.4,186.2,290.4L186.2,290.4z"/>
	<path class="st9" d="M186.2,290.4c0-2-1.6-3.5-3.5-3.5s-3.5,1.6-3.5,3.5s1.6,3.5,3.5,3.5S186.2,292.4,186.2,290.4L186.2,290.4z"/>
	<pattern  id="SVGID_17_" xlink:href="#Unnamed_Pattern_24" patternTransform="matrix(1 0 0 -1 -26 -527.2707)">
	</pattern>
	<path class="st20" d="M492.6,303.1c0-5.5-4.4-9.9-9.9-9.9s-9.9,4.4-9.9,9.9c0,5.5,4.4,9.9,9.9,9.9S492.6,308.5,492.6,303.1
		L492.6,303.1z"/>
	<path class="st7" d="M182.7,563.6v-7.8 M178.8,559.7h7.8"/>
	<path class="st7" d="M438.9,563.6v-7.8 M435,559.7h7.8"/>
	<path class="st7" d="M438.9,294.3v-7.8 M435,290.4h7.8"/>
	<path class="st7" d="M182.7,294.3v-7.8 M178.8,290.4h7.8"/>
</g>
<g id="Layer_1">
	<g>
		<circle class="st21" cx="144.7" cy="309.2" r="4.3"/>
		<circle class="st21" cx="482.7" cy="309.2" r="4.3"/>
		<circle class="st21" cx="138.5" cy="558.3" r="4.3"/>
		<circle class="st21" cx="480.3" cy="555.6" r="4.3"/>
		<path class="st21" d="M416.3,291.3H205.5h-45.2H92.7c-3.1,0-5.7,2.6-5.7,5.7v158.5c0,4.7,3.8,8.5,8.5,8.5h68
			c3.1,0,5.7,2.5,5.7,5.7v30.1c0,3.1-2.6,5.7-5.7,5.7h-68c-4.7,0-8.5,3.8-8.5,8.5v55.2c0,3.1,2.6,5.7,5.7,5.7h67.4h45.2h211h45.2h45
			c3.1,0,5.7-2.6,5.7-5.7V297c0-3.1-2.6-5.7-5.7-5.7h-45.1H416.3z M161.8,343.5c-2.9,0.4-5.3-2-4.9-4.9c0.3-1.8,1.7-3.3,3.5-3.5
			c2.9-0.4,5.3,2,4.9,4.9C165,341.8,163.6,343.2,161.8,343.5z M128.6,521.2c-3.1,0.8-5.8-1.8-5.3-4.8c0.3-1.8,1.7-3.2,3.5-3.5
			c3.1-0.5,5.6,2.3,4.7,5.4C131.2,519.7,130,520.8,128.6,521.2z M245.6,357.5c2.9-0.4,5.3,2,4.9,4.9c-0.3,1.8-1.7,3.3-3.5,3.5
			c-2.9,0.4-5.3-2-4.9-4.9C242.4,359.2,243.8,357.7,245.6,357.5z M246.9,505.5c-2.7,0-4.8-2.4-4.2-5.2c0.3-1.5,1.6-2.8,3.1-3.2
			c2.8-0.7,5.3,1.4,5.3,4.1C251.1,503.6,249.2,505.5,246.9,505.5z M401,390.1c0,4.6-3.8,8.3-8.3,8.3H265.1c-4.7,0-8.5-3.8-8.5-8.5
			v-66.1c0-4.7,3.8-8.5,8.5-8.5h127.4c4.7,0,8.5,3.8,8.5,8.5V390.1z M411.6,357.8c1.4,0.4,2.6,1.5,2.9,2.9c0.9,3.2-2,6.1-5.3,5.3
			c-1.4-0.4-2.6-1.5-2.9-2.9C405.5,359.8,408.4,356.9,411.6,357.8z M411.6,504.9c-2.9,0.4-5.3-2-4.9-4.9c0.3-1.8,1.7-3.3,3.5-3.5
			c2.9-0.4,5.3,2,4.9,4.9C414.8,503.2,413.4,504.6,411.6,504.9z M473,377.5c2.7,0,4.8,2.4,4.2,5.2c-0.3,1.5-1.6,2.8-3.1,3.2
			c-2.8,0.7-5.3-1.4-5.3-4.1C468.8,379.4,470.7,377.5,473,377.5z M473.5,520.3c-2.7,0-4.8-2.4-4.2-5.2c0.3-1.5,1.6-2.8,3.1-3.2
			c2.8-0.7,5.3,1.4,5.3,4.1C477.8,518.4,475.9,520.3,473.5,520.3z"/>
	</g>
</g>
<g id="Layer_3" class="st3">
	<g class="st22">
		<g id="LINE">
			<line class="st23" x1="428.3" y1="346.8" x2="397.9" y2="346.8"/>
		</g>
		<g id="LINE_1_">
			<line class="st23" x1="397.9" y1="346.8" x2="397.9" y2="346.2"/>
		</g>
		<g id="LINE_2_">
			<line class="st23" x1="397.9" y1="346.2" x2="396.7" y2="346.2"/>
		</g>
		<g id="LINE_3_">
			<line class="st23" x1="396.7" y1="346.2" x2="396.7" y2="345.4"/>
		</g>
		<g id="LINE_4_">
			<line class="st23" x1="396.7" y1="345.4" x2="389.9" y2="345.4"/>
		</g>
		<g id="LINE_5_">
			<line class="st23" x1="389.9" y1="345.4" x2="389.9" y2="346.2"/>
		</g>
		<g id="LINE_6_">
			<line class="st23" x1="389.9" y1="346.2" x2="389.9" y2="345.4"/>
		</g>
		<g id="LINE_7_">
			<line class="st23" x1="389.9" y1="345.4" x2="383.1" y2="345.4"/>
		</g>
		<g id="LINE_8_">
			<line class="st23" x1="383.1" y1="345.4" x2="383.1" y2="346.2"/>
		</g>
		<g id="LINE_9_">
			<line class="st23" x1="383.1" y1="346.2" x2="381.9" y2="346.2"/>
		</g>
		<g id="LINE_10_">
			<line class="st23" x1="381.9" y1="346.2" x2="381.9" y2="346.8"/>
		</g>
		<g id="LINE_11_">
			<line class="st23" x1="381.9" y1="346.8" x2="234" y2="346.8"/>
		</g>
		<g id="LINE_12_">
			<line class="st23" x1="234" y1="346.8" x2="234" y2="323"/>
		</g>
		<g id="LINE_13_">
			<line class="st23" x1="234" y1="323" x2="142" y2="323"/>
		</g>
		<g id="LINE_14_">
			<line class="st23" x1="142" y1="323" x2="142" y2="365.8"/>
		</g>
		<g id="LINE_15_">
			<line class="st23" x1="142" y1="365.8" x2="116" y2="365.8"/>
		</g>
		<g id="LINE_16_">
			<line class="st23" x1="116" y1="365.8" x2="116" y2="459.9"/>
		</g>
		<g id="LINE_17_">
			<line class="st23" x1="116" y1="459.9" x2="167.7" y2="459.9"/>
		</g>
		<g id="LINE_18_">
			<line class="st23" x1="167.7" y1="459.9" x2="167.7" y2="497.3"/>
		</g>
		<g id="LINE_19_">
			<line class="st23" x1="167.7" y1="497.3" x2="116" y2="497.3"/>
		</g>
		<g id="LINE_20_">
			<line class="st23" x1="116" y1="497.3" x2="116" y2="522.6"/>
		</g>
		<g id="LINE_21_">
			<line class="st23" x1="116" y1="522.6" x2="485.3" y2="522.6"/>
		</g>
		<g id="LINE_22_">
			<line class="st23" x1="485.3" y1="522.6" x2="485.3" y2="333.8"/>
		</g>
		<g id="LINE_23_">
			<line class="st23" x1="485.3" y1="333.8" x2="428.3" y2="333.8"/>
		</g>
		<g id="LINE_24_">
			<line class="st23" x1="428.3" y1="333.8" x2="428.3" y2="346.8"/>
		</g>
		<g id="CIRCLE_15_">
			<path class="st23" d="M403,355.7c0-4.3,3.5-7.8,7.8-7.8c4.3,0,7.8,3.5,7.8,7.8s-3.5,7.8-7.8,7.8C406.5,363.5,403,360,403,355.7
				L403,355.7z"/>
		</g>
		<g id="CIRCLE_14_">
			<path class="st23" d="M153.6,333.2c0-4.3,3.5-7.8,7.8-7.8s7.8,3.5,7.8,7.8s-3.5,7.8-7.8,7.8S153.6,337.5,153.6,333.2L153.6,333.2
				z"/>
		</g>
		<g id="CIRCLE_13_">
			<path class="st23" d="M465.6,375.6c0-4.3,3.5-7.8,7.8-7.8s7.8,3.5,7.8,7.8s-3.5,7.8-7.8,7.8S465.6,379.9,465.6,375.6L465.6,375.6
				z"/>
		</g>
		<g id="CIRCLE_12_">
			<path class="st23" d="M403.4,494.6c0-4.3,3.5-7.8,7.8-7.8s7.8,3.5,7.8,7.8s-3.5,7.8-7.8,7.8S403.4,498.9,403.4,494.6L403.4,494.6
				z"/>
		</g>
		<g id="CIRCLE_11_">
			<path class="st23" d="M120,510.9c0-4.3,3.5-7.8,7.8-7.8s7.8,3.5,7.8,7.8s-3.5,7.8-7.8,7.8S120,515.2,120,510.9L120,510.9z"/>
		</g>
		<g id="CIRCLE_10_">
			<path class="st23" d="M466,509.9c0-4.3,3.5-7.8,7.8-7.8c4.3,0,7.8,3.5,7.8,7.8s-3.5,7.8-7.8,7.8C469.5,517.7,466,514.3,466,509.9
				L466,509.9z"/>
		</g>
		<g id="CIRCLE_9_">
			<path class="st23" d="M238.8,355.5c0-4.3,3.5-7.8,7.8-7.8c4.3,0,7.8,3.5,7.8,7.8s-3.5,7.8-7.8,7.8
				C242.3,363.3,238.8,359.8,238.8,355.5L238.8,355.5z"/>
		</g>
		<g id="CIRCLE_8_">
			<path class="st23" d="M239.4,495.1c0-4.3,3.5-7.8,7.8-7.8c4.3,0,7.8,3.5,7.8,7.8s-3.5,7.8-7.8,7.8
				C242.9,502.9,239.4,499.4,239.4,495.1L239.4,495.1z"/>
		</g>
	</g>
</g>
</svg>
